<svg xmlns="http://www.w3.org/2000/svg" width="215" height="360" viewBox="0 0 215 360">
  <defs>
    <style>
      .cls-1 {
        fill: #f43f5e;
      }

      .cls-1, .cls-2, .cls-3, .cls-4 {
        fill-rule: evenodd;
      }

      .cls-2 {
        fill: #fb7185;
      }

      .cls-3 {
        fill: #494647;
      }

      .cls-4 {
        fill: #322d2f;
      }
    </style>
  </defs>
  <path class="cls-1" d="M99.494,168.679S45.161,145.346,36.6,119.624c0,0-12.211-30.944,5.031-60.376,0,0,18.85-47.664,77.986-54.087,0,0,30.52,55.075,94.338,74.212,0,0-73.345,32.044-118.237-42.766C95.72,36.607,8.461,93.314,99.494,168.679Z"/>
  <path class="cls-2" d="M197.605,274.338s14.059-56.945-62.892-89.307l-46.54-21.383s-58.4-52-23.9-101.885c0,0,10.606-19.952,31.446-27.672,0,0,49.82,63.074,116.979,45.282,0,0-50.031,45.79-99.369,6.289,0,0-23.65-20.358-25.157-26.415,0,0-42.368,46.554,50.314,89.306,0,0,69.454,23.535,74.212,64.15C212.7,212.7,220.591,246.755,197.605,274.338Z"/>
  <path class="cls-3" d="M17.735,85.662s-11.526,53.015,45.282,80.5c0,0,64.105,28.23,70.438,37.735,0,0,81.457,65.042-13.836,123.268,0,0-52.881-60.715-118.236-45.282,0,0,63.758-62.92,124.525,17.609,0,0,29.742-25.881-10.062-62.891,0,0-28.987-24.164-55.345-33.962,0,0-45.353-16.2-55.345-47.8C5.156,154.843-10.689,113.923,17.735,85.662Z"/>
  <path class="cls-4" d="M1.383,281.885s64.325,12.709,93.08,72.954c0,0,36.332,1.8,71.7-42.766,0,0,46.548-51.893-10.063-98.111,0,0-20.171-13.42-36.477-20.126,0,0,67.781,49.432,31.446,103.143,0,0-5.983,11.225-28.93,27.672C122.135,324.651,73.606,259.123,1.383,281.885Z"/>
</svg>
